<svg width="32" height="32" viewBox="0 0 32 32" fill="none" xmlns="http://www.w3.org/2000/svg">
<path d="M32 24.6914C32 25.147 31.552 25.4684 31.1134 25.3451C20.8817 22.4689 10.6217 28.9407 0.455575 25.767C0.183279 25.682 0 25.4265 0 25.1412V23.9369C0 23.4766 0.456757 23.1546 0.898061 23.2856C11.0611 26.3026 21.3162 19.7112 31.5413 22.8461C31.8151 22.9301 32 23.1864 32 23.4729V24.6914Z" fill="#FF0066"/>
<path d="M32 14.4718C32 14.9285 31.5505 15.2503 31.1112 15.1255C26.341 13.7697 21.546 14.4818 16.7762 15.2733C16.3699 15.3408 16 15.0276 16 14.6156V13.3425C16 13.0166 16.2356 12.7384 16.5571 12.6849C21.544 11.8551 26.5593 11.0789 31.5457 12.6299C31.8184 12.7147 32 12.9697 32 13.2552V14.4718Z" fill="#FF0066"/>
<path d="M32 19.5836C32 20.0392 31.552 20.3607 31.1133 20.2378C20.8715 17.3682 10.4549 23.9686 0.444843 20.664C0.177957 20.5759 0 20.3231 0 20.0421V18.8071C0 18.3531 0.445159 18.0318 0.882893 18.1524C11.0509 20.9539 21.3112 14.5946 31.5414 17.7383C31.8152 17.8224 32 18.0787 32 18.3652V19.5836Z" fill="#FF0066"/>
<path d="M32 9.39957C32 9.85627 31.5505 10.178 31.1112 10.0532C26.341 8.69741 21.546 9.40953 16.7762 10.2011C16.3699 10.2685 16 9.95532 16 9.54337V8.27024C16 7.94434 16.2356 7.66614 16.5571 7.61265C21.544 6.78287 26.5593 6.00666 31.5457 7.55765C31.8184 7.64244 32 7.89748 32 8.18298V9.39957Z" fill="#FF0066"/>
<path d="M0.888481 7.94762C0.449264 7.82246 0 8.14429 0 8.60099V14.9219C0 15.2091 0.18371 15.4652 0.458461 15.5488C4.7064 16.8422 8.92651 16.5114 13.174 15.8789C13.4993 15.8305 13.7391 15.5504 13.7391 15.2215V8.83801C13.7391 8.42924 13.3746 8.11704 12.9702 8.17664C8.93486 8.7714 4.92339 9.09742 0.888481 7.94762Z" fill="#0038FF"/>
</svg>